<?xml version="1.0" standalone="no"?>
<!DOCTYPE svg PUBLIC "-//W3C//DTD SVG 20010904//EN" "http://www.w3.org/TR/2001/REC-SVG-20010904/DTD/svg10.dtd">
<svg version="1.0" xmlns="http://www.w3.org/2000/svg"
    width="1028.000000pt" height="964.000000pt" viewBox="0 0 1028.000000 964.000000"
    preserveAspectRatio="xMidYMid meet">

    <g transform="translate(0.000000,964.000000) scale(0.100000,-0.100000)"
        fill="#CE492C" stroke="none">
        <path
            d="M4960 7343 c-187 -15 -466 -79 -645 -150 -283 -111 -493 -236 -715
-429 -274 -237 -464 -483 -635 -825 -96 -189 -183 -469 -221 -708 -18 -110
-31 -618 -16 -639 7 -10 49 5 188 66 l179 78 6 170 c7 184 10 217 41 374 26
133 73 277 145 444 255 589 791 1046 1393 1187 411 97 789 74 1172 -69 131
-50 206 -88 340 -172 333 -211 559 -454 752 -807 37 -68 68 -135 69 -150 l2
-27 -188 -45 c-110 -27 -186 -50 -185 -57 2 -6 82 -82 178 -170 96 -87 247
-229 335 -314 234 -226 324 -304 330 -288 2 7 14 49 26 93 11 44 31 116 45
160 50 172 234 849 230 852 -2 3 -91 -21 -197 -51 -149 -42 -197 -52 -205 -43
-7 7 -26 46 -44 87 -68 158 -180 344 -301 500 -99 129 -332 360 -454 451 -199
148 -482 299 -682 364 -299 98 -645 141 -943 118z" />
        <path
            d="M5060 6610 c-150 -26 -308 -140 -382 -276 -31 -57 -68 -183 -68 -232
0 -109 91 -171 186 -126 43 21 59 52 68 129 20 164 125 255 295 255 56 0 79
-5 129 -31 109 -54 160 -148 149 -276 -8 -108 -41 -159 -170 -266 -62 -52
-127 -111 -146 -132 -50 -57 -80 -135 -97 -249 -8 -55 -18 -104 -22 -107 -4
-4 -110 -55 -237 -114 -126 -59 -360 -169 -520 -245 -159 -76 -398 -188 -530
-250 -235 -111 -447 -211 -862 -409 -306 -146 -335 -164 -379 -243 -67 -123
-16 -281 108 -333 29 -11 77 -15 211 -15 124 0 178 -4 189 -12 8 -7 38 -57 67
-111 107 -204 252 -405 416 -576 227 -238 570 -460 887 -575 268 -97 475 -136
759 -143 165 -4 218 -2 342 16 435 63 809 223 1134 484 153 123 230 195 324
304 87 102 207 269 198 278 -3 2 -103 5 -223 6 l-218 1 -131 -129 c-188 -185
-334 -289 -542 -389 -730 -350 -1571 -219 -2182 338 -197 181 -343 377 -463
623 -95 194 -146 334 -128 351 13 12 334 167 1093 526 823 389 825 390 857
384 42 -8 130 -49 588 -269 217 -104 461 -220 543 -258 81 -38 218 -104 305
-147 86 -44 211 -103 277 -133 66 -29 209 -97 318 -151 179 -88 197 -100 197
-123 0 -14 -1 -26 -2 -27 -2 -2 -850 -5 -1884 -8 l-1881 -5 69 -115 c38 -63
75 -121 82 -128 11 -12 340 -14 1937 -13 1234 0 1936 4 1958 11 166 48 215
263 89 389 -44 43 -118 85 -294 167 -117 54 -475 228 -1024 494 -179 87 -363
176 -410 198 -47 22 -182 86 -300 142 -118 56 -260 122 -314 146 -127 56 -136
65 -136 124 0 87 25 138 108 215 175 164 198 190 236 266 43 88 59 197 45 313
-11 92 -31 145 -87 229 -110 169 -329 262 -532 227z" />
    </g>
</svg>