<?xml version="1.0" standalone="no"?>
<!DOCTYPE svg PUBLIC "-//W3C//DTD SVG 20010904//EN" "http://www.w3.org/TR/2001/REC-SVG-20010904/DTD/svg10.dtd">
<svg version="1.0" xmlns="http://www.w3.org/2000/svg"
    width="1008.000000pt" height="719.000000pt" viewBox="0 0 1008.000000 719.000000"
    preserveAspectRatio="xMidYMid meet">

    <g transform="translate(0.000000,719.000000) scale(0.100000,-0.100000)"
        fill="#CE492C" stroke="none">
        <path
            d="M3630 4121 c-108 -35 -170 -118 -170 -227 0 -83 -8 -92 -99 -100 -61
-5 -82 -10 -85 -23 -11 -36 -26 -157 -41 -341 -9 -107 -25 -265 -36 -350 -25
-202 -25 -244 1 -270 20 -20 30 -21 496 -18 l476 3 20 25 c23 28 22 42 -6 240
-9 63 -30 243 -46 400 -17 157 -35 295 -40 308 -9 20 -17 22 -77 22 -38 0 -75
4 -83 10 -10 6 -16 36 -21 96 -6 73 -11 93 -36 128 -51 72 -179 122 -253 97z
m123 -65 c75 -27 105 -76 109 -180 2 -50 -2 -70 -12 -76 -8 -6 -83 -10 -167
-10 -180 0 -180 0 -164 100 15 95 46 136 126 167 39 15 62 15 108 -1z m18
-380 c75 -17 137 -55 192 -116 60 -66 82 -131 82 -240 0 -103 -21 -155 -92
-231 -173 -185 -478 -139 -590 88 -23 49 -25 61 -21 155 5 122 26 180 91 246
91 94 210 129 338 98z" />
        <path
            d="M3604 3501 c-51 -31 -77 -77 -82 -143 -9 -121 50 -198 157 -206 106
-8 172 50 187 162 11 75 -31 157 -97 191 -40 21 -127 19 -165 -4z" />
        <path
            d="M6887 3933 c-4 -3 -7 -84 -7 -180 0 -95 -4 -173 -8 -173 -5 0 -19 11
-31 24 -66 71 -207 90 -304 42 -138 -67 -202 -221 -167 -399 32 -165 129 -255
285 -265 87 -5 160 22 205 76 33 40 54 38 63 -8 5 -23 15 -34 42 -45 42 -18
107 -19 123 -3 17 17 15 108 -4 143 -13 25 -17 87 -21 400 -2 204 -6 376 -8
383 -5 13 -156 18 -168 5z m-73 -437 c60 -35 71 -62 71 -175 0 -77 -4 -101
-19 -123 -50 -75 -163 -94 -240 -41 -123 85 -112 299 19 359 41 20 117 10 169
-20z" />
        <path
            d="M7981 3921 c-13 -23 -14 -120 -3 -139 6 -9 33 -12 98 -10 l89 3 0 80
0 80 -87 3 c-78 2 -88 1 -97 -17z" />
        <path
            d="M1085 3902 c-3 -3 -5 -204 -5 -447 0 -330 3 -444 12 -453 12 -12 106
-16 146 -6 21 6 22 10 22 140 l0 134 42 46 c66 71 61 75 261 -196 l92 -125 98
-3 c78 -2 97 0 97 11 0 15 -47 79 -237 322 -68 86 -123 162 -123 170 0 7 60
80 133 162 165 186 202 232 191 242 -5 4 -48 6 -96 3 l-87 -4 -133 -156 c-174
-205 -219 -253 -229 -246 -5 3 -9 95 -9 205 0 109 -3 199 -7 200 -76 5 -163 5
-168 1z" />
        <path
            d="M4307 3894 c-9 -9 -9 -469 0 -712 l6 -182 78 0 c61 0 78 3 83 16 3 9
6 78 6 154 0 116 2 139 16 144 9 3 72 6 140 6 145 0 198 11 246 50 58 48 91
122 96 216 7 134 -35 222 -136 282 l-47 27 -240 3 c-132 2 -244 0 -248 -4z
m413 -170 c106 -43 109 -209 3 -256 -34 -15 -62 -18 -140 -16 l-98 3 -3 129
c-1 72 0 136 2 143 8 20 184 18 236 -3z" />
        <path
            d="M2228 3664 c-35 -11 -58 -27 -90 -64 -23 -27 -46 -47 -50 -44 -4 3
-8 28 -8 55 l0 50 -72 -3 -73 -3 -3 -300 c-1 -165 0 -314 3 -332 5 -27 12 -34
43 -43 64 -17 100 -13 118 15 15 22 16 48 10 213 -6 169 -5 190 11 222 22 43
84 76 159 86 l54 6 0 79 0 79 -27 -1 c-16 0 -49 -7 -75 -15z" />
        <path
            d="M2750 3671 c-45 -14 -105 -48 -124 -70 -27 -29 -34 -27 -42 17 -9 47
-16 52 -86 52 l-58 0 0 -437 c0 -241 3 -455 6 -475 l7 -38 68 0 c93 0 94 2 85
197 -6 115 -4 153 5 153 6 0 38 -18 71 -39 151 -101 323 -51 405 118 24 48 28
71 31 161 3 88 0 114 -17 162 -48 126 -139 197 -263 204 -35 2 -74 0 -88 -5z
m85 -160 c81 -37 120 -111 113 -217 -7 -106 -58 -156 -166 -162 -57 -3 -72 0
-101 20 -19 12 -43 34 -53 48 -24 33 -34 142 -19 207 25 104 125 150 226 104z" />
        <path
            d="M5430 3671 c-54 -11 -95 -37 -130 -81 -38 -48 -50 -41 -50 28 l0 42
-75 0 -75 0 2 -327 3 -328 62 -5 c34 -3 72 -3 85 0 l23 6 0 199 c0 170 3 205
17 231 21 38 83 70 154 79 l51 6 6 65 c9 96 6 101 -73 85z" />
        <path
            d="M5776 3655 c-78 -32 -124 -70 -164 -136 -44 -74 -55 -119 -50 -219 9
-176 109 -287 286 -320 159 -28 323 50 383 183 21 45 24 68 24 167 0 114 0
116 -35 174 -89 150 -285 217 -444 151z m201 -140 c77 -32 112 -93 113 -192 0
-75 -11 -108 -53 -151 -54 -56 -151 -66 -222 -22 -80 49 -107 196 -55 290 43
77 135 109 217 75z" />
        <path
            d="M7436 3669 c-67 -10 -183 -60 -192 -83 -8 -20 24 -65 51 -72 13 -3
37 2 54 11 84 43 192 39 248 -9 22 -19 27 -32 27 -72 1 -39 -2 -48 -14 -45 -8
2 -56 6 -106 9 -107 5 -169 -11 -226 -58 -89 -73 -106 -222 -35 -298 36 -39
97 -65 167 -70 84 -6 136 9 187 53 23 19 46 35 52 35 6 0 17 -13 25 -29 19
-36 60 -53 122 -49 l49 3 3 69 c3 60 0 70 -18 83 -19 13 -20 24 -20 178 0 90
-4 175 -10 189 -15 40 -80 106 -131 131 -55 28 -147 38 -233 24z m182 -385
c20 -22 23 -34 18 -66 -9 -54 -24 -75 -72 -98 -48 -24 -92 -25 -141 -5 -47 20
-62 41 -63 90 0 81 54 118 164 111 62 -3 73 -7 94 -32z" />
        <path
            d="M8540 3674 c-55 -11 -150 -46 -174 -65 -33 -26 -33 -40 3 -78 l30
-32 39 20 c54 27 156 43 207 31 58 -13 95 -58 95 -116 l0 -46 -32 9 c-18 4
-78 8 -133 8 -92 0 -104 -2 -154 -30 -172 -95 -170 -304 3 -373 107 -43 217
-29 292 38 19 16 39 30 44 30 5 0 17 -14 25 -30 9 -17 27 -35 41 -40 28 -11
94 -13 118 -4 24 9 21 104 -4 151 -18 33 -20 57 -20 191 0 132 -3 158 -19 191
-25 48 -81 98 -140 124 -45 20 -165 31 -221 21z m180 -383 c53 -38 31 -130
-40 -170 -128 -72 -282 44 -195 147 14 17 42 35 63 41 50 14 141 5 172 -18z" />
        <path
            d="M7987 3654 c-4 -4 -7 -169 -7 -366 0 -219 -4 -367 -10 -378 -13 -24
-69 -42 -122 -38 l-42 3 -9 -43 c-5 -24 -6 -50 -3 -57 8 -21 85 -38 151 -32
95 7 158 46 198 122 21 39 22 50 22 415 l0 375 -85 3 c-47 1 -89 0 -93 -4z" />
    </g>
</svg>